<?xml version="1.0" encoding="utf-8"?>
<!-- Generator: Adobe Illustrator 28.0.0, SVG Export Plug-In . SVG Version: 6.00 Build 0)  -->
<svg version="1.1" id="Layer_1" xmlns="http://www.w3.org/2000/svg" xmlns:xlink="http://www.w3.org/1999/xlink" x="0px" y="0px"
	 viewBox="0 0 118.4 171.8" style="enable-background:new 0 0 118.4 171.8;" xml:space="preserve">
<style type="text/css">
	.st0{fill-rule:evenodd;clip-rule:evenodd;}
</style>
<path d="M69.6,54.5c-14.4-2.5-27.9,0-40.6,7.3c-0.5,0.3-1.1,0.6-1.8,1c0-3.8,0-7.6,0-11.4c0-0.4,0-0.8,0-1.2V0L0,12.2v39.3h0
	c0,18.6,0,37.1,0,55.7c0,9.6,0.6,19.1,4.5,28c9.1,20.5,24.7,33,47,36.1c31,4.3,59.5-16.4,65.7-47C123.8,92,102.1,60.2,69.6,54.5z
	 M59.1,148.9c-19.8,0-35.6-16-35.6-35.9c0.1-19.6,16.1-35.4,35.9-35.4c19.7,0,35.5,16,35.5,35.8C94.8,133.1,78.9,149,59.1,148.9z"/>
<path class="st0" d="M60.9,95.8c-0.2-0.1-0.8-0.5-1.6-0.9c-1.8-0.8-4.5-1.3-6.6-1.1c-3.4,0.3-6.2,1.5-8.7,3l-1.5,1.1
	c-0.3,0.2-0.5,0.4-0.8,0.6c-0.3,0.2-0.5,0.5-0.7,0.6c-0.1,0.1-0.2,0.1-0.4,0.3c-0.1,0.1-0.1,0.2-0.3,0.3c-2.3,2.3-4,5-4.1,8.9
	c0.9,0.1,1.7-0.2,2,0c0.3,0.5,0.1,2.8,0,3.5c-0.5,0.1-1.1,0.1-1.7,0.1c-0.5-0.1-1.1-0.5-1.4-0.3c0.2,0.8,2.2,1.1,2.9,1.1
	c0,0.6-0.5,1.6-0.8,2c-0.5,0.8-1.1,1.2-1.2,1.5l0,0.1c0.5,0.2,0.9,0.1,1.4,0.1l0.1,1.6c-0.4,0.4-0.8,0.2-0.6,1
	c0.2,0.2,0.2,0.2,0.6,0.3c-0.4,0.7-0.3,1,0.6,1.2c0.2,0.8,0.1,1.6,0.9,1.9c0.7,0.2,9.5-0.4,10.9-0.1c0.8,0.1,1.5,0.3,1.6,1.3
	c0.1,1.7-0.5,3.3-0.9,4.8c-0.7,2.6-3.8,6.5-5.9,8.2c-0.5,0.4-1,0.9-1.5,1.3c-0.6,0.4-1,0.8-1.6,1.3c-0.3,0.2-1.4,0.9-1.5,1.3
	c0.7,0.3,5.1,0.6,6,0.5c2.3-0.1,3.9-0.2,6-0.7c2.4-0.6,7.8-2.5,9.2-4.1l-1.9-1.6c-2.1-1.8-3.3-3.7-3.9-6.7c-0.4-2.1-0.1-4.2,0.6-6
	c0.7-1.8,1.9-2.9,3-4.1c0.5-0.6,1.1-1.2,1.6-1.8c3.3-4.5,5.7-10.6,3.3-16.1c-0.4-1-0.9-1.5-1.3-2.3l0.5-0.3c0.2-0.1,0.4-0.1,0.6-0.2
	c2.4-0.8,7-2.6,9.2-2.7c3-0.1,1.8,2.3,1,3.9c-2.7,5.2-5.2,9.3-4,15.8c0.4,1.9,1.1,3.6,2.1,4.6c1.2,1.2,1.9,2,4,2.9
	c1.7,0.7,3.8,0.9,5.9,0.7c2.2-0.3,3.5-1,4.7-2.1c2.6-2.2,4.4-5.6,4.3-9.3c0-2-1-3.9-2.3-4.5c-1.7-0.9-4,0.9-4.8,1.6
	c-0.9,0.8-2.3,2.7-3,3.7c-0.4,0.6-2.3,3.8-2.4,4.4c0.6,0.2,3.5-1.8,4.2-2.1c0.8-0.4,3.1-0.2,1.2,3.2c-1.4,2.6-4.9,1.9-6.7,0.7
	l-1.8-1.5c-2.9-3.1-2.9-4.8-0.3-8.6c0.9-1.3,2-2.1,3-3.4l2.9-3.6c1.4-1.8,2.9-3.8,3.7-5.9c1.7-4.3-4.3-7.3-7.6-7.9
	c-4-0.8-7.3,0.6-9.9,2.4L65.7,91c-1.3,1-2.2,2-3.3,3.1C62.1,94.5,61.2,95.6,60.9,95.8L60.9,95.8z"/>
</svg>
